<?xml version="1.0" standalone="no"?>
<!DOCTYPE svg PUBLIC "-//W3C//DTD SVG 20010904//EN"
 "http://www.w3.org/TR/2001/REC-SVG-20010904/DTD/svg10.dtd">
<svg version="1.0" xmlns="http://www.w3.org/2000/svg"
 width="1080.000000pt" height="1080.000000pt" viewBox="0 0 1080.000000 1080.000000"
 preserveAspectRatio="xMidYMid meet">
<metadata>
Created by potrace 1.14, written by Peter Selinger 2001-2017
</metadata>
<g transform="translate(0.000000,1080.000000) scale(0.100000,-0.100000)"
fill="#000000" stroke="none">
<path d="M0 5400 l0 -5400 5400 0 5400 0 0 5400 0 5400 -5400 0 -5400 0 0
-5400z m2498 2401 c13 -7 27 -23 32 -37 6 -14 10 -170 10 -355 l0 -329 290 0
290 0 0 330 c0 363 2 376 59 400 41 16 123 14 159 -4 17 -9 35 -29 41 -47 8
-22 11 -268 11 -816 0 -853 2 -823 -56 -853 -15 -8 -50 -15 -79 -15 -29 0 -64
7 -79 15 -55 29 -56 38 -56 425 l0 355 -290 0 -289 0 -3 -371 -3 -371 -27 -23
c-52 -45 -155 -42 -206 6 l-22 20 0 818 0 818 23 21 c41 39 135 45 195 13z
m2181 18 c65 -23 86 -132 37 -194 l-24 -30 -367 -5 -366 -5 0 -255 c0 -140 0
-261 1 -267 0 -10 45 -13 189 -13 104 0 197 -3 206 -6 41 -16 59 -113 29 -159
-25 -38 -65 -45 -253 -45 l-176 0 5 -267 5 -268 368 -5 c412 -6 385 0 407 -78
12 -44 4 -82 -25 -118 l-23 -29 -471 0 -471 0 -27 28 -28 27 0 820 c0 914 -6
838 71 865 51 18 862 22 913 4z m490 -26 l26 -20 3 -729 c2 -567 5 -730 15
-736 6 -5 151 -8 322 -7 l309 1 23 -27 c18 -21 23 -38 23 -86 0 -54 -3 -64
-30 -90 l-29 -30 -413 3 c-378 3 -415 5 -439 21 -15 10 -30 28 -33 40 -10 38
-7 1604 4 1631 23 62 151 79 219 29z m1641 12 c183 -48 282 -142 336 -320 27
-90 26 -316 -3 -405 -49 -153 -138 -246 -289 -302 -52 -19 -86 -22 -284 -27
l-225 -6 -5 -308 -5 -309 -27 -23 c-51 -44 -156 -41 -206 5 l-22 21 0 820 0
820 26 24 c14 13 38 26 52 29 15 2 153 3 307 1 227 -2 292 -6 345 -20z m1585
-3124 c331 -87 542 -327 626 -713 61 -280 39 -694 -50 -952 -115 -332 -326
-545 -616 -622 -97 -26 -360 -26 -455 0 -211 58 -377 180 -479 353 -40 69 -84
187 -94 256 l-6 37 239 0 240 0 6 -27 c13 -53 43 -100 93 -145 64 -58 135 -81
248 -80 72 1 93 5 148 31 85 39 146 104 195 205 59 124 95 294 88 426 l-3 65
-28 -48 c-112 -190 -372 -305 -627 -276 -317 35 -540 243 -606 566 -20 94 -14
285 10 378 65 244 268 456 506 530 163 50 409 57 565 16z m-1605 -1146 l0
-1135 -240 0 -240 0 0 840 c0 905 2 871 -51 814 -66 -70 -242 -134 -371 -134
l-68 0 0 188 0 188 80 10 c160 22 316 131 380 265 16 35 30 72 30 82 0 16 18
17 240 17 l240 0 0 -1135z"/>
<path d="M6340 7275 l0 -316 203 3 c200 3 202 3 243 30 54 35 82 75 105 150
41 130 14 300 -58 370 -72 69 -87 72 -300 76 l-193 4 0 -317z"/>
<path d="M8050 4321 c-108 -35 -197 -112 -244 -211 -29 -60 -31 -73 -31 -175
0 -91 4 -120 22 -165 31 -76 107 -159 179 -195 55 -28 67 -30 169 -30 100 0
115 2 167 28 152 74 241 248 217 420 -17 128 -103 248 -217 304 -48 24 -71 28
-147 30 -49 1 -101 -1 -115 -6z"/>
</g>
</svg>
